{"title":"30.Minutes.Or.Less.2011.R5.LiNE.XviD-VISUALISE","uid":6780662,"size":1277537320,"categoryP":"video","categoryS":"movies","magnet":"?xt=urn:btih:bf8c7408790a60dbaa70edc28532c9f2103dc717&amp;dn=30.Minutes.Or.Less.2011.R5.LiNE.XviD-VISUALISE&amp;tr=udp%3A%2F%2Ftracker.openbittorrent.com%3A80&amp;tr=udp%3A%2F%2Fopen.demonii.com%3A1337&amp;tr=udp%3A%2F%2Ftracker.coppersurfer.tk%3A6969&amp;tr=udp%3A%2F%2Fexodus.desync.com%3A6969","seeders":0,"leechers":0,"uploader":".Dude.","files":-1,"time":1319887417,"description":"Title: 30 Minutes Or Less 2011 R5LiNE XviD - VISUALiSE\nFormat: Xvid\nLanguage: English\nSubtitles: No\nSample: Yes\nImdb: http://www.imdb.com/title/tt1622547/\n\nPlot:\nTwo fledgling criminals kidnap a pizza delivery guy,\nstrap a bomb to his chest, and inform him that he has\nmere hours to rob a bank or else...\n\nSources:\nVideo: Russians - Many Thanks :D\nAudio: Guys From TA - Many Thanks :D\n\nRelease Notes:\nBringing to the people of p2p... 30 Minutes Or Less 2011 R5LiNE XviD - VISUALiSE\nFinally bringing you 30 minutes or less R5 Line and what nice Line audio it is\nas well :P :P\nMany thanks to those involved in bringing this release ;) ;)\ncheck sample and njoy :P :P\n\nInfo:\n\nVideo\nID                               : 0\nFormat                           : MPEG-4 Visual\nFormat profile                   : Advanced Simple@L5\nFormat settings, BVOP            : 2\nFormat settings, QPel            : No\nFormat settings, GMC             : No warppoints\nFormat settings, Matrix          : Custom\nCodec ID                         : XVID\nCodec ID/Hint                    : XviD\nDuration                         : 1h 19mn\nBit rate                         : 2 000 Kbps\nWidth                            : 720 pixels\nHeight                           : 304 pixels\nDisplay aspect ratio             : 2.35:1\nFrame rate                       : 25.000 fps\nColor space                      : YUV\nChroma subsampling               : 4:2:0\nBit depth                        : 8 bits\nScan type                        : Progressive\nCompression mode                 : Lossy\nBits/(Pixel*Frame)               : 0.365\nStream size                      : 1.11 GiB (94%)\nWriting library                  : XviD 58\n\nAudio\nID                               : 1\nFormat                           : MPEG Audio\nFormat version                   : Version 1\nFormat profile                   : Layer 3\nMode                             : Joint stereo\nMode extension                   : MS Stereo\nCodec ID                         : 55\nCodec ID/Hint                    : MP3\nDuration                         : 1h 19mn\nBit rate mode                    : Constant\nBit rate                         : 128 Kbps\nChannel(s)                       : 2 channels\nSampling rate                    : 44.1 KHz\nCompression mode                 : Lossy\nStream size                      : 73.0 MiB (6%)\nAlignment                        : Split accross interleaves\nInterleave, duration             : 40 ms (1.00 video frame)\nWriting library                  : LAME3.98r\nEncoding settings                : -m j -V 4 -q 2 -lowpass 17 -b 128\n\nScreens: &lt;a href=&quot;\nhttp://i.imgur.com/uJmRO.png&quot; rel=&quot;nofollow&quot; target=&quot;_NEW&quot;&gt;\nhttp://i.imgur.com/uJmRO.png&lt;/a&gt;\n &lt;a href=&quot;\nhttp://i.imgur.com/wSQi1.png&quot; rel=&quot;nofollow&quot; target=&quot;_NEW&quot;&gt;\nhttp://i.imgur.com/wSQi1.png&lt;/a&gt;\n &lt;a href=&quot;\nhttp://i.imgur.com/k6IIE.png&quot; rel=&quot;nofollow&quot; target=&quot;_NEW&quot;&gt;\nhttp://i.imgur.com/k6IIE.png&lt;/a&gt;\n &lt;a href=&quot;\nhttp://i.imgur.com/8kSBv.png&quot; rel=&quot;nofollow&quot; target=&quot;_NEW&quot;&gt;\nhttp://i.imgur.com/8kSBv.png&lt;/a&gt;\n &lt;a href=&quot;\nhttp://i.imgur.com/LfAXR.png&quot; rel=&quot;nofollow&quot; target=&quot;_NEW&quot;&gt;\nhttp://i.imgur.com/LfAXR.png&lt;/a&gt;\n\nGreetz:\nEach and Every Scene / P2P Group Past and Present and All Who Have Made It What It Is 2Day  \n\n","torrent":{"xt":"urn:btih:bf8c7408790a60dbaa70edc28532c9f2103dc717","amp;dn":"30.Minutes.Or.Less.2011.R5.LiNE.XviD-VISUALISE","amp;tr":["udp%3A%2F%2Ftracker.openbittorrent.com%3A80","udp%3A%2F%2Fopen.demonii.com%3A1337","udp%3A%2F%2Ftracker.coppersurfer.tk%3A6969","udp%3A%2F%2Fexodus.desync.com%3A6969"],"infoHash":"bf8c7408790a60dbaa70edc28532c9f2103dc717","infoHashBuffer":{"type":"Buffer","data":[191,140,116,8,121,10,96,219,170,112,237,194,133,50,201,242,16,61,199,23]},"announce":[],"urlList":[]}}